<?xml version="1.0" encoding="UTF-8" standalone="no"?>
<svg
   xmlns:dc="http://purl.org/dc/elements/1.1/"
   xmlns:cc="http://creativecommons.org/ns#"
   xmlns:rdf="http://www.w3.org/1999/02/22-rdf-syntax-ns#"
   xmlns:svg="http://www.w3.org/2000/svg"
   xmlns="http://www.w3.org/2000/svg"
   viewBox="0 0 4000 4000"
   height="4000"
   width="4000"
   xml:space="preserve"
   id="svg2"
   version="1.1"><metadata
     id="metadata8"><rdf:RDF><cc:Work
         rdf:about=""><dc:format>image/svg+xml</dc:format><dc:type
           rdf:resource="http://purl.org/dc/dcmitype/StillImage" /></cc:Work></rdf:RDF></metadata><defs
     id="defs6" /><g
     transform="matrix(1.3333333,0,0,-1.3333333,0,4000)"
     id="g10"><g
       transform="scale(0.1)"
       id="g12"><g
         transform="scale(1.84049)"
         id="g14"><path
           id="path16"
           style="fill:#ffffff;fill-opacity:0;fill-rule:nonzero;stroke:none"
           d="M 16300,0 H 0 V 16300 H 16300 V 0" /></g><g
         transform="scale(1.34034)"
         id="g18"><path
           id="path20"
           style="fill:#3b3b3b;fill-opacity:1;fill-rule:nonzero;stroke:none"
           d="m 4094.43,16300 c -32.05,-36.8 -64.53,-73.8 -96.84,-110.8 20.31,15.5 42.97,28.5 70.24,38.6 27.72,18.7 24,43.2 26.6,72.2" /></g><g
         transform="scale(1.32263)"
         id="g22"><path
           id="path24"
           style="fill:#3b3b3b;fill-opacity:1;fill-rule:nonzero;stroke:none"
           d="m 3946.66,16279.2 c -2.58,-8.1 -4.98,-15.8 -7.31,-22.9 l 23.64,43.7 c -5.55,-7.1 -11.11,-14.2 -16.33,-20.8" /></g><g
         transform="scale(1.31341)"
         id="g26"><path
           id="path28"
           style="fill:#3b3b3b;fill-opacity:1;fill-rule:nonzero;stroke:none"
           d="m 3854.35,16190.8 c 30.99,34.4 54.6,71.7 75.39,109.2 -27.28,-26.6 -53.29,-61.9 -75.39,-109.2" /></g><g
         transform="scale(1.31908)"
         id="g30"><path
           id="path32"
           style="fill:#3b3b3b;fill-opacity:1;fill-rule:nonzero;stroke:none"
           d="m 3949.51,16299 0.43,1 c -12.28,-23.2 -24.48,-46.2 -37.09,-70.1 20.47,19.8 41.87,35 63.1,45.9 -19.34,-5.3 -34.37,-3.8 -26.44,23.2" /></g><g
         transform="scale(1.31879)"
         id="g34"><path
           id="path36"
           style="fill:#3b3b3b;fill-opacity:1;fill-rule:nonzero;stroke:none"
           d="m 3976.83,16279.4 c 18.74,5.2 42.1,18.1 52.53,20.6 -17.02,-4.6 -34.73,-11.4 -52.53,-20.6" /></g><g
         transform="scale(1.33984)"
         id="g38"><path
           id="path40"
           style="fill:#3b3b3b;fill-opacity:1;fill-rule:nonzero;stroke:none"
           d="m 3740.02,15091.6 c 55.57,116.8 112.26,207 158.53,300.2 47.94,92.2 93.43,182.5 157.95,279.4 41.53,87 82.47,172.7 123.58,258.7 42.88,85.5 91.89,167.8 142.25,253.6 32.09,44.8 69.69,80.3 106.81,116.5 -52.7,-43.5 -106.41,-88.7 -164.93,-140.2 -41.05,-31.8 -60.64,-88.2 -80.15,-152.6 -19.68,-64.2 -33.33,-141 -72.56,-209.1 -7.12,-25.5 -70.34,28.3 -84.52,-22.5 -49.4,-107.2 -78.35,-206.4 -134.02,-298.2 -10.56,-51.1 -129.59,-66.5 -140.66,-118 -48.72,-108.3 -91.42,-420.6 -12.28,-267.8" /></g><g
         transform="scale(1.40336)"
         id="g42"><path
           id="path44"
           style="fill:#3b3b3b;fill-opacity:1;fill-rule:nonzero;stroke:none"
           d="m 4410.6,16040.3 c 129.23,57.6 224.22,136.4 311.13,229.9 -20.21,10.4 -35.59,29.8 -69.21,13.1 -11.46,-23 -34.72,-69.4 -34.72,-69.4 -115.93,-34.2 -188.6,-124.7 -248.62,-224.3 20.57,3 41.47,6 62.44,9.1 41.81,49.3 32.79,69.3 -21.02,41.6" /></g><g
         transform="scale(1.40567)"
         id="g46"><path
           id="path48"
           style="fill:#3b3b3b;fill-opacity:1;fill-rule:nonzero;stroke:none"
           d="m 4766.91,16300 -3.21,-0.5 c -16.66,-18.8 -33.38,-37.6 -49.71,-56 1.92,-1.3 4.25,-2.1 6.57,-3.2 15.61,20.1 31.14,40.1 46.35,59.7" /></g><g
         transform="scale(1.27596)"
         id="g50"><path
           id="path52"
           style="fill:#3b3b3b;fill-opacity:1;fill-rule:nonzero;stroke:none"
           d="m 2637.76,13565.6 c -13.17,105.9 40.83,181.5 99.74,242.6 -2.5,-79.1 -40.11,-172.5 -99.74,-242.6 z M 6051.95,5126.34 c -51.15,71.56 -114.26,130.26 -183.43,198.68 -70.35,66.61 -151.72,136.52 -241.52,224.69 -80.45,82.84 -163.06,188.57 -249.76,316.78 100.16,-153.69 6.56,-131.82 -140.17,-15.83 -148.35,131.59 -355.01,370.55 -411.31,609.19 -20.37,86.13 -51.25,166.86 -86.83,247.19 -33.02,82.37 -73.37,161.84 -119.73,239.66 -96.9,152.12 -197.02,312.79 -315.2,467.34 -219.71,318.5 -466.42,653.78 -578.93,1020.09 -64.04,178.46 -145.39,361.85 -222.79,574.39 -145.48,569.69 -281.66,1113.18 -374.23,1678.38 -91.42,563.8 -137.39,1150.4 -71.69,1765.6 15.43,162.9 16.18,317.4 7.2,468.4 -0.68,149.6 -6.23,295 -4.11,437.4 13.34,101.5 46.01,202.7 76.65,299 31.87,95.8 62.15,187 88.23,265.6 36.99,124.7 60.25,244.1 84.75,357.7 26.8,112.8 47.21,222.3 65.34,330.9 -32.81,-116.7 -58.34,-218.4 -85.28,-322.9 -25.36,-104.9 -44.45,-215.1 -76.68,-345.1 -45.06,-173.5 -72.43,149 -61.86,273.3 -5.69,56.2 113.09,102.2 111.8,156.2 36.93,104.7 34.21,214 51.3,336.3 0.85,55 80.27,17.7 80.87,44.8 44.3,156.4 -9.09,317.9 53.51,405.9 46.81,66.5 90.52,125.5 133.16,182.6 23.77,37.6 46.39,75.4 63.83,119 6.43,29.3 13.04,59.8 19.66,90.2 61.4,211.6 137.67,458.9 239.1,674.4 -2.65,0.5 -5.56,1 -8.3,1.4 -33.56,-60.4 -70.09,-117.8 -113.78,-171.9 -41.59,-55.2 -87.65,-108.8 -146.27,-158.4 47.12,44.9 64.2,26 34,-38.2 -21.41,-8.7 -43.06,-17.5 -64.38,-26.2 40.76,118.7 75.37,243.9 194.98,307.8 0,0 12.15,54.9 18.06,82.2 31.42,26.6 53.37,10.4 77.39,4.7 13.23,23.6 25.92,47.9 38.27,72.4 -66.94,-24.4 -213.39,-149.5 -213.39,-149.5 -91.57,-151 -171.02,-303.2 -256.2,-448 -76.81,-149.5 -152.1,-295.7 -226.42,-440.2 5.15,-29.8 16.84,-54 -5.5,-80.8 -23.64,-17.3 -42.23,-37 -57.84,-58 -19.72,-43.2 -39.44,-86.5 -58.99,-129.4 -4.28,-15.9 -8.66,-32.2 -13.03,-48.7 -0.08,-0.2 -0.17,-1 -0.17,-1.4 -1.14,-28.3 14.43,-26 32.56,-15.6 15.59,13.5 32.13,24.9 48.24,33.7 -10.27,-5.7 -30.46,-23.5 -48.24,-33.7 -18.86,-16.4 -36.5,-36.1 -52.28,-61.2 -5.89,-19.5 -11.77,-39.4 -18.27,-59.3 3.93,15.2 7.86,30.8 11.96,46.6 2.31,3.8 3.83,9 6.31,12.7 5.45,21.3 10.62,41.8 15.8,62.4 0.08,0.1 0.08,0.2 0.16,0.3 l -0.08,-0.1 c 1.35,5.2 2.68,10.5 4.01,15.6 0.56,8.1 1.02,15.9 1.58,24.3 l -67.97,-147.8 -60.1,-150.7 c -6.25,-24.2 -12.32,-47.3 -15.98,-66.6 -15.14,-77.7 -30,-154.6 -86.1,-187.1 -7.11,-17.9 -14.57,-35.9 -20.73,-54.5 l 10.54,8.4 c -4.95,-7.5 -9.57,-13.6 -13.91,-18.4 -26.43,-77.5 -52.97,-155.2 -79.66,-233.3 -55.69,-151.6 -98.59,-308.7 -142.9,-469.6 -143.03,-517.2 -223.49,-1031.3 -255.03,-1553.4 -27.67,-522.4 -11.77,-1052.3 46.8,-1610.9 61.73,-605.77 169.63,-1185.73 317.51,-1750.4 149.83,-563.42 400.35,-1067.91 680.78,-1551.62 283.27,-484.27 594.59,-950.58 925.04,-1464.08 133.62,-190.91 359.18,-436.53 612.74,-646.96 121.65,-111.21 256.05,-205.97 377.21,-295.55 60.85,-44.51 119.05,-86.91 173.2,-126.57 56.28,-36.68 108.49,-70.61 155.24,-101.02 288.27,-108.94 414.27,-38.01 470.35,61.37 55.74,99.69 43.17,227.2 38.26,243.26 -27.71,114.9 -66.55,199.93 -117.35,272.11" /></g><path
         id="path54"
         style="fill:#3b3b3b;fill-opacity:1;fill-rule:nonzero;stroke:none"
         d="m 6861.13,7485.4 c -8.76,13.5 -18.64,28.1 -29.87,43.8 10.11,-15.4 19.88,-28.9 29.87,-43.8" /><path
         id="path56"
         style="fill:#3b3b3b;fill-opacity:1;fill-rule:nonzero;stroke:none"
         d="m 12552,3130.3 c 61.1,-23.2 122.8,-46.7 184.3,-70.2 -28.8,18.5 -55.8,40.8 -81.2,70.3 -36.5,26.1 -65.5,10.1 -103.1,-0.1" /><path
         id="path58"
         style="fill:#3b3b3b;fill-opacity:1;fill-rule:nonzero;stroke:none"
         d="m 12941.7,2989 c 11.1,0.5 21.8,1 31.6,1.4 l -64.9,9.3 c 11.2,-3.6 22.7,-7.3 33.3,-10.7" /><path
         id="path60"
         style="fill:#3b3b3b;fill-opacity:1;fill-rule:nonzero;stroke:none"
         d="m 13246.1,2933.7 c -56.7,22.4 -113.2,34.5 -169.1,43 45.2,-21.4 100.7,-37.3 169.1,-43" /><path
         id="path62"
         style="fill:#3b3b3b;fill-opacity:1;fill-rule:nonzero;stroke:none"
         d="m 12974.9,2990.4 h -1.6 c 34.4,-4.5 68.4,-9 103.7,-13.7 -33.8,16.2 -62.5,35.8 -85.8,57 15.5,-21.4 20.6,-40.8 -16.3,-43.3" /><path
         id="path64"
         style="fill:#3b3b3b;fill-opacity:1;fill-rule:nonzero;stroke:none"
         d="m 12959.5,3069.4 c -5.6,6.7 -12.8,13.2 -17.6,19.9 3.2,-4.9 10,-12 17.6,-19.9" /><path
         id="path66"
         style="fill:#3b3b3b;fill-opacity:1;fill-rule:nonzero;stroke:none"
         d="m 12991.2,3033.7 c -8.6,12.1 -21.1,24.8 -31.7,35.7 10.1,-12 19.3,-24.2 31.7,-35.7" /><path
         id="path68"
         style="fill:#3b3b3b;fill-opacity:1;fill-rule:nonzero;stroke:none"
         d="m 14243.5,3248.9 c -172.7,15.5 -312.4,44.6 -451,59.3 -138.1,17.3 -272.7,32.3 -424.6,68.2 -128.7,11.7 -255.3,23.3 -382.5,34.8 -127.4,14.1 -253.7,37.3 -384.9,60.6 -71.2,19.4 -133.4,50 -196,79.8 79.3,-45.8 160.9,-92.3 252.9,-141.7 59.2,-36.9 139,-35.2 229,-29.7 89.9,5.1 192.8,23.8 296.6,6.3 35.3,2.8 -2.8,-101.6 67.6,-95.7 157.7,-12.2 295.7,-2.3 437,-29.4 69.1,10.4 143.9,-131.8 213.8,-121.8 158.7,-10.7 570.9,81.2 342.1,109.3" /><path
         id="path70"
         style="fill:#3b3b3b;fill-opacity:1;fill-rule:nonzero;stroke:none"
         d="m 11686.4,3557.7 c -138.8,142 -288.8,228.5 -454.2,297.2 -3.9,-31.7 -22,-61.5 16.4,-97.4 36,-3.9 108.4,-11.8 108.4,-11.8 101.5,-135.9 256.2,-187.3 416.4,-217.7 -13.9,25.6 -28.2,51.6 -42.4,77.7 -85.3,31 -107.2,9.3 -44.6,-48" /><path
         id="path72"
         style="fill:#3b3b3b;fill-opacity:1;fill-rule:nonzero;stroke:none"
         d="m 11131.9,3897.1 2.1,-4.1 c 32.9,-12.7 65.9,-25.6 98.2,-38.1 0.7,3.2 0.6,6.6 0.9,10.2 -34,10.8 -68,21.5 -101.2,32" /><g
         transform="scale(1.56689)"
         id="g74"><path
           id="path76"
           style="fill:#3b3b3b;fill-opacity:1;fill-rule:nonzero;stroke:none"
           d="m 16300,6006.93 c -6.1,-8.36 -12.6,-17.48 -19.5,-27.76 7,9.51 12.9,18.38 19.5,27.76" /></g><g
         transform="scale(1.65598)"
         id="g78"><path
           id="path80"
           style="fill:#3b3b3b;fill-opacity:1;fill-rule:nonzero;stroke:none"
           d="m 10393,1648.75 c 57.8,19.39 135.4,17.27 202,-7.06 -73,-37.87 -142,-19.09 -202,7.06 z m 5735.1,4915.88 c -86.9,13.46 -175.7,-29.71 -186,-37.5 -75.6,-50.91 -126.6,-101.69 -165.1,-157.73 -38.1,-56.16 -63.4,-117.46 -94.4,-185.76 -29.3,-68.66 -58.1,-146.19 -97.6,-234.66 -38.2,-80.31 -92.5,-168.36 -161.9,-265.22 84.1,113.41 93.4,39.92 48.9,-97.16 -55.2,-142.4 -172.6,-355.75 -329.8,-460.34 -56.8,-37.8 -106.9,-81.76 -155.3,-128.98 -50.7,-45.9 -97.3,-96.38 -141.1,-150.73 -84,-110.75 -173.3,-226.09 -253.2,-352.9 -171.2,-244.02 -347.3,-512.08 -581.8,-691.43 -111.7,-94.21 -222.4,-202.12 -355.3,-314.98 -372.6,-257.74 -728.8,-501.82 -1112.3,-720.06 -382.7,-217.03 -794.1,-407.43 -1256.2,-524.82 -121.8,-32.43 -233.6,-73.44 -340.3,-120.36 -107.9,-40.64 -211.5,-83.51 -314.9,-120.17 -76.9,-17.45 -158.9,-21.07 -236.6,-24.69 -77.8,-2.66 -151.7,-5.26 -215.6,-7.49 -99.9,-6.64 -192.35,-21.86 -281.06,-34.54 -88.65,-10.87 -173.25,-25.43 -256.59,-41.49 93.12,7.67 173.5,16.43 256.17,24.94 82.61,9.78 167.38,25.54 269.88,37.08 137.4,13.89 -88.2,-92.27 -180.87,-118 -39.07,-19.08 -104.11,54.35 -142.76,39.01 -85.51,-1.45 -163.77,-32.67 -256.7,-53.08 -40.04,-14.13 -34.24,53.26 -54.05,46.5 -124.94,-9.96 -227.18,-91.79 -307.61,-70.17 -60.57,15.94 -114.92,31.76 -167.57,47.34 -33.58,6.95 -66.91,13.23 -103.03,14.19 -22.94,-3.26 -46.73,-6.58 -70.41,-9.96 -169.32,-12.38 -368.48,-23.55 -551.33,-8.03 0.42,-2 0.84,-4.23 1.15,-6.34 52.77,-8.03 103.92,-19.14 154.65,-36.11 51.15,-15.34 102.17,-34.18 153.68,-63.23 -44.99,22.04 -35.93,39.43 18.48,34.78 l 36.11,-39.49 c -96.56,-2.35 -196.2,-10.81 -274.52,58.4 0,0 -42.93,-6.04 -64.19,-8.94 -27.66,15.52 -21.86,35.69 -24.21,54.59 -20.48,3.26 -41.43,5.85 -62.51,8.27 35.57,-41.91 165.16,-114.19 165.16,-114.19 133.76,-25.67 264.92,-42.21 392.34,-64.98 128.5,-15.46 254.35,-30.61 378.75,-45.65 20.11,11.78 34.54,26.69 59.84,17.69 18.72,-12.44 37.98,-20.59 57.25,-26.27 36.59,-2.65 73.07,-5.31 109.3,-7.96 12.74,1.2 25.6,2.41 38.77,3.62 0.18,0.06 0.72,0.24 1.08,0.36 20.72,6.7 14.8,17.33 2.48,27.72 -9.18,5.01 -16.79,11.17 -24.64,17.02 7.97,-5.07 17.33,-10.92 24.64,-17.02 16.91,-9.24 35.93,-16.73 58.27,-21.38 15.58,0.84 31.53,1.99 47.71,2.66 -12.02,-1.21 -24.22,-2.6 -36.66,-3.87 -3.56,0.61 -7.6,0.36 -11.05,1.21 -16.84,-1.81 -33.09,-3.62 -49.39,-5.38 -0.06,0 -0.12,0 -0.12,0 v 0 c -4.11,-0.42 -8.28,-0.9 -12.32,-1.32 -5.98,-1.75 -11.84,-3.51 -17.94,-5.32 l 124.94,-9.48 125,-3.08 c 19.15,2 37.44,3.81 52.3,6.28 60.27,9.9 119.69,19.81 158.27,-12.01 14.8,-0.43 29.84,-0.97 44.87,-0.43 l -8.87,5.44 c 6.82,-1.51 12.44,-3.32 17.15,-5.08 62.96,1.58 126.16,3.27 189.76,4.96 124.5,0.36 249.5,11.41 377.6,22.52 412,35.27 804.9,114.86 1190.6,231.89 384.8,120.05 763.3,273.49 1151.2,465.52 421.1,206.83 811,440.23 1179.3,698.38 367,259.18 664.4,575.31 938.6,907.5 274,334.36 527.5,684.24 810,1060.52 102,147.76 219,376.45 303.1,616.07 47.8,117.75 80.3,240.1 112.4,351.75 15.9,55.86 31,109.24 45,159.06 11.4,50.42 22.1,97.22 31.5,139.13 1.5,237.51 -83.6,309.43 -170.4,323.38" /></g><g
         transform="scale(1.63596)"
         id="g82"><path
           id="path84"
           style="fill:#3b3b3b;fill-opacity:1;fill-rule:nonzero;stroke:none"
           d="m 16300,11369.2 c -7.9,39.2 -15.9,78.8 -24,118.2 0,-21 -2.8,-42.2 -9.7,-65 -1.6,-27.3 16.2,-37.1 33.7,-53.2" /></g><g
         transform="scale(1.63104)"
         id="g86"><path
           id="path88"
           style="fill:#3b3b3b;fill-opacity:1;fill-rule:nonzero;stroke:none"
           d="m 16294.6,11651.7 c -3.9,5.7 -7.7,11.1 -11.1,16 l 16.5,-36.7 c -1.8,7.1 -3.7,14.2 -5.4,20.7" /></g><g
         transform="scale(1.62669)"
         id="g90"><path
           id="path92"
           style="fill:#3b3b3b;fill-opacity:1;fill-rule:nonzero;stroke:none"
           d="m 16266.7,11859.2 c 7,-36.8 19.4,-70.2 33.3,-101.9 -3.7,30.5 -13.6,64.5 -33.3,101.9" /></g><g
         transform="scale(1.62939)"
         id="g94"><path
           id="path96"
           style="fill:#3b3b3b;fill-opacity:1;fill-rule:nonzero;stroke:none"
           d="m 16271.6,11674.6 c 6.1,15.1 14.5,24.1 27.9,5.7 l 0.5,-0.8 c -9,19.3 -17.7,38.4 -27,58.3 2.8,-22.9 2,-44.2 -1.4,-63.2" /></g><g
         transform="scale(1.62572)"
         id="g98"><path
           id="path100"
           style="fill:#3b3b3b;fill-opacity:1;fill-rule:nonzero;stroke:none"
           d="m 16300,11672.2 c -1.5,-5 -2.4,-10.7 -4.3,-15.2 1.3,3.2 2.8,8.9 4.3,15.2" /></g><g
         transform="scale(1.62655)"
         id="g102"><path
           id="path104"
           style="fill:#3b3b3b;fill-opacity:1;fill-rule:nonzero;stroke:none"
           d="m 16300,11695 c -3.4,-8.7 -6,-19.5 -8.2,-28.7 3,9.3 6.4,18.3 8.2,28.7" /></g><g
         transform="scale(1.61898)"
         id="g106"><path
           id="path108"
           style="fill:#3b3b3b;fill-opacity:1;fill-rule:nonzero;stroke:none"
           d="m 16020.3,12189.6 c -46.9,86.4 -231.1,271.1 -170.2,142.4 49,-95.2 80,-177.7 118.1,-254.9 36.7,-77.8 73.3,-153 104.7,-244.1 36.5,-71.1 72.3,-140.9 108.3,-211.2 34.8,-71.1 64.4,-144.7 95.6,-220.8 13.5,-43.6 18,-86.1 23.2,-128.7 -2.3,56.5 -5,114.5 -9.6,178.8 -0.5,43.1 -27.6,84.2 -60.3,129.3 -32.3,45.3 -76.1,92.8 -101.2,152.8 -13.2,17.4 53.8,32 27.6,66.9 -45.8,86.2 -96.5,155 -129.1,237.7 -28.3,32.6 21.2,118.7 -7.1,151.8" /></g><g
         transform="scale(1.64701)"
         id="g110"><path
           id="path112"
           style="fill:#3b3b3b;fill-opacity:1;fill-rule:nonzero;stroke:none"
           d="m 16252.6,10710.2 c -27.7,-117.4 -23.3,-222.4 -4.8,-329.6 17.5,8.3 38.6,8.7 44.5,40.1 -9.6,19.8 -29.1,59.3 -29.1,59.3 36.8,96.3 12.9,192.3 -23.6,284.4 -8.6,-15.4 -17.3,-31.2 -26,-47 11.7,-53.8 30,-57.9 39,-7.2" /></g><g
         transform="scale(1.64297)"
         id="g114"><path
           id="path116"
           style="fill:#3b3b3b;fill-opacity:1;fill-rule:nonzero;stroke:none"
           d="m 16298.7,10340.8 1.3,2.4 c -4.1,21.1 -8.3,42.2 -12.3,62.9 -1.9,-0.6 -3.6,-1.8 -5.6,-2.7 5.6,-21.1 11.1,-42 16.6,-62.6" /></g><g
         transform="scale(1.60809)"
         id="g118"><path
           id="path120"
           style="fill:#3b3b3b;fill-opacity:1;fill-rule:nonzero;stroke:none"
           d="m 8960.99,16300 c 10.08,-0.8 20.96,-1.3 32.96,-1.7 -11.32,0.7 -21.76,1 -32.96,1.7" /></g><g
         transform="scale(1.68023)"
         id="g122"><path
           id="path124"
           style="fill:#3b3b3b;fill-opacity:1;fill-rule:nonzero;stroke:none"
           d="m 14588.3,13539.5 c -46.7,37.9 -85.7,103.6 -100.6,171.9 70,-40.9 90.7,-108.2 100.6,-171.9 z m -6987.99,2048.1 c 82.19,-36.1 151.41,-51.8 218.37,-54.3 66.83,-2.1 131.29,9.1 204.43,19.3 72.67,11.8 152.3,28.8 246.93,42.5 87.07,10.5 188.97,11.7 306.21,5.1 -138.91,10.2 -82.55,56.6 54.99,91.9 147.84,29.1 387.27,43.9 557.25,-31.8 61.48,-27.4 124.5,-46 189.26,-61.4 65.05,-18 131.64,-30.2 199.85,-38 136.59,-11.5 279.72,-25 427.4,-24.7 293.6,-13.9 609.6,-19.2 882.6,-119.9 137.3,-43.3 285.6,-78.7 449.5,-129.7 411.2,-174.4 802.1,-342.2 1186.1,-546.5 382.5,-204.2 758.1,-446.4 1099.4,-769.3 91.3,-84.3 184.3,-155.8 279.6,-219.9 90.7,-68.4 181.1,-132 266.1,-198.8 55.2,-54.8 101.4,-121.1 145.4,-183.9 43.2,-63.4 84.4,-123.6 119.8,-175.6 58.3,-79.8 119.7,-148.8 177,-215.8 55.9,-68.1 112.6,-130.9 169.9,-191.8 -55.5,73.6 -105.1,135.7 -155.8,200.1 -51.7,63.6 -109.6,125.9 -173.2,205.2 -84,107.1 123.4,-24.8 193.6,-88.4 36.5,-22.4 9.7,-115.4 42.9,-139.4 46.2,-70.5 113.4,-119.2 179.5,-185.8 32.8,-25.9 -26.4,-56.6 -10.3,-69.5 74.2,-98.7 196.2,-140.8 220.7,-219.1 18.6,-58.9 34.1,-112.5 48.9,-164.5 11.9,-31.6 24.2,-62.7 42.5,-93.3 14.9,-17.4 30.1,-35.4 45.5,-53.4 99.5,-134.5 213.8,-294.4 297.3,-454.7 l 4.7,4.3 c -21.1,48.1 -38.8,96.5 -51.4,147.8 -14.2,50.6 -25.5,103.1 -28.5,161.3 5.4,-49.2 -13.8,-50.8 -38.7,-3 4.6,17 9.3,34.1 13.9,50.9 52.9,-79.2 112.5,-157.7 96.1,-259.4 0,0 27.6,-32.6 41.3,-48.8 1.7,-31.2 -18.2,-36.9 -32.7,-48.8 8.1,-18.8 16.9,-37.6 26.1,-56.5 16.2,51.7 8,197.7 8,197.7 -49.1,124.9 -104.5,242.9 -152.8,361 -54.8,115.2 -108.6,227.9 -161.8,339.4 -20.3,10.6 -40.3,14.6 -46.2,40.5 0.5,22.1 -2.9,42.5 -8.3,61.5 -17,31.9 -34.2,63.7 -50.9,95.2 -7.8,10 -15.6,20.1 -23.6,30.4 -0.1,0.1 -0.5,0.5 -0.8,0.7 -16.5,13.7 -22.3,3.3 -24.3,-12.5 0.6,-10.5 -0.5,-20.2 -1.3,-30.1 0,9.5 -0.1,20.6 1.3,30.1 -1.3,18.9 -5.1,38.7 -13,59.8 -8.9,12.4 -18.2,25 -27.2,38.1 7.3,-9.3 14.9,-18.8 22.4,-28.3 1.3,-3.3 3.7,-6.5 4.8,-9.8 10.4,-13 20.4,-25.7 30.4,-38.3 0.1,-0.1 0.1,-0.1 0.1,-0.2 v 0.1 c 2.5,-3.2 5.1,-6.5 7.6,-9.6 4.6,-4 9.2,-8.1 13.9,-12.2 l -58,109.2 -63.3,105.6 c -11.8,14.8 -22.9,29.2 -32.8,40.2 -40,45 -79.7,89.3 -73.4,138.2 -7.5,12.5 -14.9,25.4 -23.4,37.5 0.1,-3.3 0.1,-6.7 0.2,-10.2 -2.2,6.4 -3.8,12.1 -4.7,16.9 -34.7,51.6 -69.4,103.4 -104.3,155.5 -66,103.4 -141,201.6 -217.8,302.5 -246.7,324.4 -520.1,609.6 -820.9,869 -302.9,257.2 -630.2,491.4 -994.7,713.1 -394.2,241.5 -794.3,443.2 -1203.4,613.8 -409.2,168.8 -829.3,249.7 -1250.5,302.9 -422.91,51.9 -847.85,78.4 -1310.17,115.2 -176.76,7.1 -428.87,-16.1 -672.7,-72.4 -123.26,-22.3 -242.29,-59.9 -352.21,-91.9 -54.88,-16.2 -107.31,-31.7 -156.17,-46.3 -48.03,-17.1 -92.55,-33 -132.42,-47.2 -198.49,-124.1 -213.66,-232.8 -179.38,-312.4 34.52,-79.5 117.36,-130.6 129.26,-135.1" /></g><path
         id="path126"
         style="fill:#3b3b3b;fill-opacity:1;fill-rule:nonzero;stroke:none"
         d="m 5329.43,13837.2 c -1.03,-54.6 -2.18,-109.9 -3.35,-165 5.71,27.8 14.8,55.4 29.3,83.7 9.34,36 -9.34,54.4 -25.95,81.3" /><path
         id="path128"
         style="fill:#3b3b3b;fill-opacity:1;fill-rule:nonzero;stroke:none"
         d="m 5327.99,13490.3 c 3.13,-8.6 6.16,-17 9.07,-24.7 l -10.13,53.9 c 0.33,-9.9 0.75,-19.9 1.06,-29.2" /><path
         id="path130"
         style="fill:#3b3b3b;fill-opacity:1;fill-rule:nonzero;stroke:none"
         d="m 5353.87,13379.9 c -3.6,-41.7 -0.57,-89.7 12.94,-145.4 1.36,50.8 -4.61,98.9 -12.94,145.4" /><path
         id="path132"
         style="fill:#3b3b3b;fill-opacity:1;fill-rule:nonzero;stroke:none"
         d="m 5337.39,13464.5 -0.33,1.1 c 5.57,-28.4 11.13,-56.5 16.81,-85.7 2.89,31.1 9.27,59.3 18.36,83.5 -11.21,-18.1 -23.52,-27.5 -34.84,1.1" /><path
         id="path134"
         style="fill:#3b3b3b;fill-opacity:1;fill-rule:nonzero;stroke:none"
         d="m 5389.56,13499 c 3.18,6.1 5.78,13.3 9.18,18.8 -2.49,-3.8 -5.66,-10.9 -9.18,-18.8" /><path
         id="path136"
         style="fill:#3b3b3b;fill-opacity:1;fill-rule:nonzero;stroke:none"
         d="m 5372.23,13463.4 c 6.33,10.4 12.23,24 17.33,35.6 -6,-11.4 -12.34,-22.3 -17.33,-35.6" /><path
         id="path138"
         style="fill:#3b3b3b;fill-opacity:1;fill-rule:nonzero;stroke:none"
         d="m 5681.84,12770.6 c 33.26,-128.9 208.46,-432.4 167.12,-242.8 -35.48,141.3 -50.63,260.6 -76.72,374.8 -23.95,114.6 -48.7,225.7 -61.89,356.2 -24.75,105.4 -49.06,209.2 -73.39,313.5 -22.5,105 -37.33,211.6 -53.96,322 -4.12,61.9 1.99,119.6 7.32,177.7 -12.59,-75.7 -24.96,-153.4 -36.79,-240.1 -23.06,-114.8 82.56,-249.5 116.51,-423.2 11.08,-27.4 -72.33,-25.8 -50.15,-80.1 31.7,-128.5 73.81,-235.5 91.99,-355.2 25.35,-52.1 -55.4,-150 -30.04,-202.8" /><path
         id="path140"
         style="fill:#3b3b3b;fill-opacity:1;fill-rule:nonzero;stroke:none"
         d="m 5454.46,15041.8 c 5.9,-29.4 17.82,-88.4 17.82,-88.4 -72.02,-119.1 -72.12,-255.1 -53.98,-390.1 l 44.56,55.7 c 1.32,76 -19.29,87 -44.92,21.2 67.45,150 92.95,293 102.01,442.8 -23.47,-6.2 -49.04,-0.7 -65.49,-41.2" /><path
         id="path142"
         style="fill:#3b3b3b;fill-opacity:1;fill-rule:nonzero;stroke:none"
         d="m 5525.82,15173.9 -2.49,-2.8 c -1.09,-29.5 -2.29,-59.2 -3.38,-88.1 2.37,0.3 4.73,1.4 7.45,2.1 -0.6,30 -1.21,59.7 -1.58,88.8" /><path
         id="path144"
         style="fill:#3b3b3b;fill-opacity:1;fill-rule:nonzero;stroke:none"
         d="m 6306.89,10044.9 c 50.68,-67.5 85.48,-169.3 88.62,-265.4 -79.61,79.9 -90.53,176.9 -88.62,265.4 z M 13172.9,4556.2 c 239.6,-60.6 590.5,-106.6 940.6,-105.8 175.1,-8.1 349.2,5.8 509,14.7 80,5 156.4,9.7 227.6,14.1 70.9,8.2 136.6,15.9 195.4,22.7 310.1,99.8 366.7,230 346.4,337.3 -21,107.3 -117.1,192.4 -132.1,201.2 -100.5,66.4 -190.4,104.3 -281.4,125 -91,20.3 -183.1,23.7 -287.1,31.5 -103.7,5.3 -218.8,6.4 -353.4,15.6 -123.3,11.3 -264.3,39.1 -424.2,80.6 188.8,-52.1 96.6,-93.1 -104,-97.3 -212.6,7.6 -547.2,59 -759.9,204.2 -76.8,52.3 -158.8,94.1 -243.9,133 -84.7,42.4 -173.4,78.2 -265.8,109.2 -185.7,56.3 -379.6,120.2 -583.9,167.2 -401.3,113.4 -834.1,225.5 -1182.1,446.1 -177.2,101.1 -370.4,198.2 -581.5,319.9 -516.95,365 -1004.95,721.7 -1470.19,1126.9 -463.19,404.8 -903.26,860.1 -1274.55,1413.2 -99.51,145.4 -203.57,274.9 -312.5,395 -101.14,124.9 -202.75,243 -296.69,363.2 -58.16,93.4 -101.75,199.1 -143.54,299.2 -42.47,100 -78.65,196.7 -112.36,279.2 -55.25,128.4 -117.54,243.5 -174.06,354.7 -54.28,112.1 -110.95,217.3 -168.74,320.1 53.93,-118.1 100.67,-220.6 149.11,-326.3 52.38,-103.5 106.45,-210.3 171.61,-338.8 81.74,-174.5 -150.4,78.5 -224.53,189.1 -41.15,43.2 14.61,158.7 -21.45,203.2 -41.56,111.7 -114.83,201.6 -182.18,315.1 -34.82,46.7 46.62,67.2 29.54,90.3 -69.04,160.4 -211.5,260.3 -223.15,375 -7.23,86.3 -13.78,164.5 -20.14,240.8 -6.98,47.2 -14.64,93.9 -29.85,141.8 -14.14,28.8 -28.72,58.6 -43.4,88.4 -89.07,217.8 -191.01,474.6 -251.25,721.9 l -6.89,-4.3 c 13.45,-72.8 22.63,-145.1 24.69,-219.4 4.55,-73.9 5.16,-149.3 -6.1,-229.8 5.91,69 30.14,64.7 48.9,-8.9 l -30.26,-64.7 c -45.12,125.9 -99.58,252.7 -52.34,386.3 0,0 -25.46,53.8 -38.14,80.4 6.2,43.2 32.36,44.6 53.25,56.1 -5.68,28.3 -11.59,57 -17.49,85.9 -33.31,-65.6 -61.77,-267.9 -61.77,-267.7 28.16,-186.9 67.26,-366.3 96.69,-543.4 39.68,-175.3 78.49,-346.9 116.84,-516.5 22.72,-21.4 46.82,-34 47.85,-70.9 -5.95,-29.8 -6.59,-58.5 -4.4,-86.1 13.64,-49.1 27.15,-98.1 40.66,-146.6 7.18,-16.1 14.46,-32.6 21.97,-49.2 0.12,-0.2 0.57,-0.9 0.8,-1.2 17.4,-24.4 27.13,-12.3 33.6,8.2 2.55,21.4 7.1,41.7 13.01,59.6 -3.64,-11.4 -6.64,-39.5 -13.01,-59.6 -2.99,-26 -3.07,-54.1 1.59,-85.3 8.18,-19.9 16.82,-40.2 24.88,-60.8 -6.95,15.1 -14.13,30.6 -21.2,46.2 -0.77,4.8 -3.01,10 -3.68,14.6 -9.64,21.1 -19.05,41.5 -28.47,61.8 -0.11,0.4 -0.22,0.7 -0.34,1.1 0,-0.2 0.12,-0.3 0.12,-0.4 -2.47,5.2 -4.94,10.6 -7.3,15.8 -4.83,7 -9.54,14 -14.49,21.3 l 46.03,-167.7 54.6,-164.6 c 11.32,-24.2 21.97,-47.4 31.74,-65.8 39.59,-74.7 78.86,-148.5 59.54,-211.9 6.37,-19.5 12.76,-39.4 20.6,-58.7 0.68,4.6 1.37,9 2.05,13.8 1.33,-9.5 1.98,-17.6 2.09,-24.3 31.69,-81.5 63.5,-163.3 95.53,-245.6 58.89,-162.1 131.99,-320 206.44,-482 239.59,-520.7 526.4,-996.6 858.5,-1445.6 335.48,-446.7 711.83,-869.6 1143.32,-1285.6 466.58,-452.2 954.15,-850.2 1463.46,-1206.5 510.05,-354 1058.85,-595.8 1618.65,-798.8 562.2,-201.8 1136,-367.8 1757.1,-550.4" /><path
         id="path146"
         style="fill:#3b3b3b;fill-opacity:1;fill-rule:nonzero;stroke:none"
         d="m 13913.7,5293.1 c -13,3.7 -27.2,7.3 -42.9,11 14.8,-4 28.4,-7.2 42.9,-11" /><g
         transform="scale(1.23126)"
         id="g148"><path
           id="path150"
           style="fill:#3b3b3b;fill-opacity:1;fill-rule:nonzero;stroke:none"
           d="m 16173.3,4544.36 c 42,14.54 84.4,29.23 126.7,43.93 -22.8,-3.49 -46.5,-4.3 -72.1,-1.38 -30.1,-3 -38.8,-22.41 -54.6,-42.55" /></g><g
         transform="scale(1.24291)"
         id="g152"><path
           id="path154"
           style="fill:#3b3b3b;fill-opacity:1;fill-rule:nonzero;stroke:none"
           d="m 16283.9,4597.6 c 5.6,4.91 11.1,9.5 16.1,13.76 l -37.9,-22.68 c 7.5,3.05 14.9,6.11 21.8,8.92" /></g><g
         transform="scale(1.25557)"
         id="g156"><path
           id="path158"
           style="fill:#3b3b3b;fill-opacity:1;fill-rule:nonzero;stroke:none"
           d="m 16194.9,4601.25 c 32.1,8.77 67.3,24.3 105.1,49.94 -38.3,-13.14 -72.6,-30.9 -105.1,-49.94" /></g><g
         transform="scale(1.24748)"
         id="g160"><path
           id="path162"
           style="fill:#3b3b3b;fill-opacity:1;fill-rule:nonzero;stroke:none"
           d="m 16240.3,4594.47 c 19.8,12.1 39.3,24.13 59.7,36.63 -24.1,-6.65 -47.1,-9.7 -67.8,-9.54 16.7,-3.36 27.2,-10.1 8.9,-26.53 l -0.8,-0.56" /></g><g
         transform="scale(1.23991)"
         id="g164"><path
           id="path166"
           style="fill:#3b3b3b;fill-opacity:1;fill-rule:nonzero;stroke:none"
           d="m 16300,4652.82 c -5.6,0.81 -12,0.65 -17.4,1.7 3.9,-0.89 10.3,-1.29 17.4,-1.7" /></g><g
         transform="scale(1.24229)"
         id="g168"><path
           id="path170"
           style="fill:#3b3b3b;fill-opacity:1;fill-rule:nonzero;stroke:none"
           d="m 16300,4640.87 c -9.5,1.85 -21.1,2.5 -31.2,3.06 10.3,-1.29 20,-3.14 31.2,-3.06" /></g><g
         transform="scale(1.29596)"
         id="g172"><path
           id="path174"
           style="fill:#3b3b3b;fill-opacity:1;fill-rule:nonzero;stroke:none"
           d="m 16043.1,4858.55 c 84.3,58.64 256.9,266.91 130.7,186.04 -92.7,-63.51 -174.9,-106.49 -250.5,-156.1 -76.6,-48.07 -150.2,-95.76 -241.1,-140.36 -69.7,-46.14 -138.2,-91.52 -207.2,-137.2 -69.9,-44.44 -142.9,-83.72 -218.4,-125.38 -43.7,-19.61 -87,-30.72 -130.6,-42.37 58.2,11.11 117.7,23.07 183.6,37.74 89.3,14.19 158.4,126.7 275,197.84 16.7,15.36 38.1,-45.29 71.4,-14.82 84.3,57.49 150.6,116.67 232.3,161.89 30.9,32.41 123.3,0.23 154.8,32.72" /></g><g
         transform="scale(1.17804)"
         id="g176"><path
           id="path178"
           style="fill:#3b3b3b;fill-opacity:1;fill-rule:nonzero;stroke:none"
           d="m 15856.4,4533.39 c 11.8,-16.81 15,-38.71 52.1,-39.81 21.6,13.41 65.2,40.15 65.2,40.15 116,-22.07 224.3,18 326.3,72.16 -18.9,6.28 -38.3,12.73 -57.5,19.09 -60.8,-21.47 -63.6,-41 -3.6,-41.93 -139.2,9.34 -260.5,-12.48 -382.5,-49.66" /></g><g
         transform="scale(1.14598)"
         id="g180"><path
           id="path182"
           style="fill:#3b3b3b;fill-opacity:1;fill-rule:nonzero;stroke:none"
           d="m 16223.8,4637.45 3,-1.05 c 24.5,8.03 49.1,15.97 73.2,23.82 -1,1.92 -2.6,3.58 -4,5.5 -24.4,-9.51 -48.6,-18.93 -72.2,-28.27" /></g><g
         transform="scale(1.53031)"
         id="g184"><path
           id="path186"
           style="fill:#3b3b3b;fill-opacity:1;fill-rule:nonzero;stroke:none"
           d="m 16297,10857.2 c 0.7,-8.8 1.7,-18.4 3,-28.9 -0.9,10.1 -2,19.2 -3,28.9" /></g><g
         transform="scale(1.59432)"
         id="g188"><path
           id="path190"
           style="fill:#3b3b3b;fill-opacity:1;fill-rule:nonzero;stroke:none"
           d="m 14644.2,5021.45 c -29.6,-64.35 -84.3,-91.88 -136.8,-109.95 28.6,44.47 80.9,87 136.8,109.95 z m -262,-277.86 c 82.5,70 159.4,147.34 238.4,226.56 254.1,254.4 471.3,526.87 662.9,820.1 189.5,294.79 356.1,608.22 506.7,952.75 164.1,373.08 291.8,746.53 390.3,1123.81 96.9,377.09 119.5,752.61 116.7,1126.06 -4,374.7 -31.4,748.4 -59.5,1153.43 -16.6,154.1 -66.2,370.5 -143,576.3 -33.4,104.6 -79.5,204 -119.7,296.1 -20.4,45.8 -39.7,89.8 -57.9,130.7 -20.3,39.9 -39.1,76.8 -56,110 -126.4,160.6 -215.2,165.5 -273.9,130.1 -58.5,-35.8 -87.5,-110.9 -89.4,-121.6 -17.1,-73.5 -19.9,-134.6 -12.3,-192.8 7.9,-57.8 26.1,-112.8 44.1,-175.7 19.5,-62.1 44,-130 68,-211.1 20.2,-75.1 34.6,-163.9 45.1,-267 -10.6,122.3 33.7,77 79.9,-40.1 41.9,-126.6 84.7,-334.5 45.6,-491.33 -14,-56.58 -20.7,-113.85 -25,-172.56 -6.4,-58.95 -8.1,-118.98 -6.3,-180.01 7.5,-121.56 12.3,-249.45 29.1,-379.85 20.7,-260.74 49.4,-539.73 -4.5,-792.44 -20.7,-126.32 -35.7,-261.05 -61.3,-411.71 -101.8,-383.61 -205.2,-748.53 -342,-1110.38 -137,-360.78 -308.9,-718.86 -553.1,-1057.82 -63.8,-90.26 -117.3,-179.76 -164.2,-269.95 -51.3,-86.69 -98.7,-172.24 -148.8,-253.72 -42.3,-54.51 -94.9,-103.18 -144.7,-149.65 -49.6,-46.73 -98.6,-89.13 -139.7,-126.89 -63.5,-60.59 -117.5,-122.25 -170.5,-179.83 -54.2,-56.39 -103.7,-112.59 -151.5,-169.04 57.7,57.52 107.7,107.32 159.3,158.82 49.5,53.5 100.4,108.51 161.9,174.93 84.8,86.06 -13.4,-105.56 -62.2,-173.3 -16.5,-33.62 -96.6,-26.03 -114.9,-56.95 -56.6,-48.86 -93.5,-111.59 -145.6,-175.82 -19.7,-30.73 -49.6,12.68 -59.6,-2.32 -79.2,-75.64 -106.9,-181.27 -171.8,-213.07 -49.1,-23.08 -93.7,-44.03 -137.2,-64.41 -26.3,-14.43 -52,-29.04 -76.8,-48.42 -13.9,-14.62 -28.2,-29.73 -42.5,-44.79 -108.8,-99.92 -237.6,-215.89 -369.8,-305.27 l 4,-3.07 c 39.9,23.77 80.4,44.97 123.6,62.41 42.5,18.75 86.7,35.5 136.4,46.47 -41.7,-11.54 -44.5,3.7 -5.3,30.67 l 44.7,-3.57 c -64.3,-54.07 -127,-113.84 -215.9,-115.1 0,0 -26,-26.71 -38.9,-39.95 -26.8,-5.83 -33.2,9.28 -44.6,19.07 -15.4,-9.54 -31,-19.26 -46.6,-28.98 45.7,-5.39 170.9,22.08 170.9,22.08 103.7,57.26 200.6,119.42 298.4,175.37 94.4,61.47 186.9,121.68 278.2,181.27 7.6,18.06 9.8,35 31.3,43.65 18.9,3.01 35.8,8.85 51.7,16.19 25.7,18.69 51.6,37.38 77.2,55.88 7.9,7.78 16,15.62 24.2,23.71 l 0.5,0.69 c 10.6,15.5 1.4,18.57 -12.2,17.94 -13.1,-3.2 -26.1,-4.89 -37.9,-5.27 7.5,0.19 24.8,4.64 37.9,5.27 16,3.89 32.5,9.97 49.9,19.57 10.5,9.66 21.2,19.76 32.3,29.67 -8,-7.97 -16.2,-16.06 -24.4,-24.28 -2.7,-1.5 -5.2,-4.01 -7.9,-5.39 -13.1,-13.05 -25.6,-25.65 -38.2,-38.2 -3.1,-4.39 -6.2,-8.72 -9.4,-13.23 l 88.6,63.72 84.9,67.93 c 11.8,11.92 23.1,23.21 31.8,32.99 35.3,39.58 70,78.85 111.6,81.23 10,8.03 20.4,16.12 30.1,24.9 -2.9,-0.63 -5.6,-1.19 -8.6,-1.75 5.2,2.82 9.9,4.95 13.8,6.52 41.1,36.44 82.2,73.01 123.6,109.76" /></g><g
         transform="scale(1.42424)"
         id="g192"><path
           id="path194"
           style="fill:#3b3b3b;fill-opacity:1;fill-rule:nonzero;stroke:none"
           d="m 14433.8,16300 c 13.1,-15.1 24.6,-31.9 34.2,-52 16.2,-20.6 34.4,-18 56.4,-20.2 -30,24 -60.3,48.1 -90.6,72.2" /></g><g
         transform="scale(1.43139)"
         id="g196"><path
           id="path198"
           style="fill:#3b3b3b;fill-opacity:1;fill-rule:nonzero;stroke:none"
           d="m 14259.9,16294.6 c -6.2,1.9 -12.2,3.7 -17.5,5.4 l 34.1,-17.2 c -5.6,4.1 -11.4,8.1 -16.6,11.8" /></g><g
         transform="scale(1.43853)"
         id="g200"><path
           id="path202"
           style="fill:#3b3b3b;fill-opacity:1;fill-rule:nonzero;stroke:none"
           d="m 14117,16245.8 c -21.5,19.6 -49.3,38.2 -85.8,54.2 27.6,-22.2 56.7,-39.2 85.8,-54.2" /></g><g
         transform="scale(1.43375)"
         id="g204"><path
           id="path206"
           style="fill:#3b3b3b;fill-opacity:1;fill-rule:nonzero;stroke:none"
           d="m 14218,16273.4 0.9,-0.3 c -18.2,9 -36.1,17.7 -54.8,26.9 16.1,-14.7 29,-30.1 38.6,-45.4 -5.3,13.9 -5.3,24.7 15.3,18.8" /></g><g
         transform="scale(1.42976)"
         id="g208"><path
           id="path210"
           style="fill:#3b3b3b;fill-opacity:1;fill-rule:nonzero;stroke:none"
           d="m 14242.3,16300 c 5.2,-13.4 16.5,-30.3 19.1,-37.8 -4.6,12.2 -10.9,25 -19.1,37.8" /></g><g
         transform="scale(1.44631)"
         id="g212"><path
           id="path214"
           style="fill:#3b3b3b;fill-opacity:1;fill-rule:nonzero;stroke:none"
           d="m 13901.5,16033.7 c -84,36.4 -160.5,58.1 -234,98.3 -39.2,7.9 -59.3,93.3 -98.8,101.5 -84.9,35.6 -325.3,66.5 -203.7,9.7 92.6,-39.6 164.5,-81.3 238.3,-114.8 73.1,-34.8 144.6,-67.8 222,-115.2 68.2,-30.6 135.5,-60.7 203,-91 67.2,-31.6 132.1,-68.1 199.7,-105.3 35.8,-23.6 64.9,-51.1 94.7,-78.4 -36.3,38.6 -73.9,78 -116.5,120.8 -53.6,60.7 -172,59.1 -281.7,113.3 -19.6,5.3 16.1,50.6 -23,61.1" /></g><g
         transform="scale(1.38661)"
         id="g216"><path
           id="path218"
           style="fill:#3b3b3b;fill-opacity:1;fill-rule:nonzero;stroke:none"
           d="m 15555.1,16070.2 c -19.5,9.3 -58.5,28.4 -58.5,28.4 -36.9,93.3 -114.9,152.8 -200.1,201.4 4.1,-16.4 8.2,-33.2 12.4,-50 43,-33.9 58.2,-26.8 31.8,16.6 56.5,-104.2 127.4,-181.3 209.4,-252 6.7,16.1 21.1,28.4 5,55.6" /></g><g
         transform="scale(1.36233)"
         id="g220"><path
           id="path222"
           style="fill:#3b3b3b;fill-opacity:1;fill-rule:nonzero;stroke:none"
           d="m 15877.8,16256.1 -0.6,2.7 c -16.8,13.8 -33.5,27.7 -49.9,41.2 -0.9,-1.6 -1.4,-3.5 -2.1,-5.3 17.6,-12.9 35.3,-25.9 52.6,-38.6" /></g><g
         transform="scale(1.52962)"
         id="g224"><path
           id="path226"
           style="fill:#3b3b3b;fill-opacity:1;fill-rule:nonzero;stroke:none"
           d="m 11164.4,16104.2 c -55.1,0.4 -121.7,22.6 -173,59.1 73.1,9.8 127.9,-23 173,-59.1 z M 4857.89,13442.6 c 64.12,-31.7 146.55,-15.3 156.88,-11 74.35,25.9 129.71,57.7 176.6,96.8 46.61,39.2 84.9,85.8 130.13,136.8 43.92,51.8 90.06,111.2 148.14,177.6 59.72,65 136.99,132.9 232.68,206.6 -126.44,-104.2 -114.63,-38.6 -32.09,74.6 88.27,107.6 247.41,261.2 407.31,314.2 57.69,19.3 111.77,45.3 165.79,74.2 55.56,27.3 109.37,59.2 162.01,94.9 102.92,74.3 212.95,149.9 318.4,237.4 217.96,163.7 447.69,344.5 700.3,438 122.78,52.2 249.81,114 396.7,175.6 394.61,124.2 773.53,236.7 1168.52,318 394.09,80.5 805.23,128.9 1239.94,102.8 115,-5.8 223.6,-3 329.2,6 104.9,3.2 206.7,9.2 306.5,10.4 71.6,-6.8 143.8,-26 212.4,-43.9 68.8,-17.6 133.4,-37.1 189.7,-52.2 88.7,-22.2 173.1,-35.4 253.4,-50 79.8,-16.2 156.9,-28.4 233.3,-39.1 -82.7,18.7 -154.6,35 -228.7,51.7 -74.6,13.8 -151.6,28 -244.3,45 -123.1,26.6 100.5,47.2 187.3,41.9 38.8,4.2 76.8,-70.5 114.3,-69.4 74.5,-22.6 150.3,-20.1 236,-30.1 38,-0.4 16.4,-50.9 35.2,-51.2 110.8,-27.6 219.2,6.9 283.4,-32.5 47.7,-30.4 91,-58 133.2,-84.9 27.4,-15.1 54.6,-29.6 85.6,-40.7 20.5,-4 41.9,-8.2 63.2,-12.5 148.5,-39.9 322.5,-88.7 474.9,-155.4 l 0.5,5.3 c -43.2,22 -84.4,45.8 -123.8,74.1 -40.3,27 -79.7,56.5 -117.1,94.2 33.5,-30.3 21.6,-41.2 -24,-21.8 l -21.7,41.4 c 83.4,-26.5 170.9,-48.3 221.6,-125.9 0,0 38.1,-8 56.9,-12 20,-20.3 10.4,-34.5 8.1,-50 17,-8.2 34.2,-16.5 51.6,-24.9 -20.8,43.4 -114.8,138.2 -114.8,138.2 -108.3,59.4 -217.1,110.2 -320.9,165 -106.8,48.9 -211.4,96.7 -314.7,144 -20.2,-3.5 -36.3,-11 -55.9,3.1 -13.2,14.9 -27.9,26.6 -43.1,36.5 -30.9,12.3 -61.7,24.7 -92.3,36.9 -11.2,2.6 -22.7,5.3 -34.3,8 -0.2,0 -0.7,0 -0.9,0.1 -19.7,0.6 -17.2,-9.2 -9.1,-20.7 10.2,-9.9 18.9,-20.3 25.9,-30.4 -4.5,6.4 -18,19.2 -25.9,30.4 -12.3,11.9 -26.9,23 -45,32.9 -14.7,3.9 -29.8,7.8 -44.9,12.1 11.6,-2.6 23.6,-5.4 35.6,-8.1 2.9,-1.5 6.6,-2.4 9.3,-4 14.8,-3.3 28.9,-6.4 43.2,-9.6 0.3,-0.1 0.6,-0.2 0.8,-0.3 0,0.1 -0.1,0.1 -0.1,0.1 3.7,-0.8 7.5,-1.6 11.1,-2.5 5.6,-0.2 11,-0.6 16.8,-0.9 l -105.5,42.5 -107.2,36.9 c -17,3.7 -33.3,7.3 -46.7,9.6 -54.6,9 -108.5,17.7 -133.9,52.9 -12.6,4.4 -25.4,9 -38.6,12.7 l 6.3,-6.6 c -5.3,3 -9.9,5.9 -13.4,8.5 -54.9,15.8 -110.1,31.7 -165.6,47.6 -107.6,33.6 -218.7,58.2 -332.5,83.7 -365.6,81.7 -726.7,121.1 -1091.8,126.4 -365.12,2.4 -734.16,-25.6 -1121.51,-85.2 -420.04,-63.4 -820.07,-159.3 -1207.16,-282.9 -386.18,-125 -729.4,-314.6 -1056.73,-525.2 -327.72,-212.5 -641.52,-445.1 -982.5,-695.6 -126.43,-100.6 -289.42,-265 -427.69,-447.3 -73.48,-87.8 -135.34,-183.9 -194,-270.5 -29.08,-43.5 -56.89,-85.2 -82.86,-123.9 -23.75,-40.1 -45.81,-77.3 -65.66,-110.6 -70.95,-200.9 -25.68,-281.9 38.2,-313.8" /></g></g></g></svg>